<?xml version="1.0" standalone="no"?><svg xmlns="http://www.w3.org/2000/svg" viewBox="0 0 1440 320"><path fill="#0099ff" fill-opacity="1" d="M0,256L8.6,240C17.1,224,34,192,51,176C68.6,160,86,160,103,144C120,128,137,96,154,101.3C171.4,107,189,149,206,154.7C222.9,160,240,128,257,133.3C274.3,139,291,181,309,202.7C325.7,224,343,224,360,224C377.1,224,394,224,411,229.3C428.6,235,446,245,463,261.3C480,277,497,299,514,261.3C531.4,224,549,128,566,85.3C582.9,43,600,53,617,64C634.3,75,651,85,669,122.7C685.7,160,703,224,720,208C737.1,192,754,96,771,58.7C788.6,21,806,43,823,64C840,85,857,107,874,133.3C891.4,160,909,192,926,208C942.9,224,960,224,977,234.7C994.3,245,1011,267,1029,250.7C1045.7,235,1063,181,1080,160C1097.1,139,1114,149,1131,160C1148.6,171,1166,181,1183,186.7C1200,192,1217,192,1234,202.7C1251.4,213,1269,235,1286,229.3C1302.9,224,1320,192,1337,170.7C1354.3,149,1371,139,1389,144C1405.7,149,1423,171,1431,181.3L1440,192L1440,0L1431.4,0C1422.9,0,1406,0,1389,0C1371.4,0,1354,0,1337,0C1320,0,1303,0,1286,0C1268.6,0,1251,0,1234,0C1217.1,0,1200,0,1183,0C1165.7,0,1149,0,1131,0C1114.3,0,1097,0,1080,0C1062.9,0,1046,0,1029,0C1011.4,0,994,0,977,0C960,0,943,0,926,0C908.6,0,891,0,874,0C857.1,0,840,0,823,0C805.7,0,789,0,771,0C754.3,0,737,0,720,0C702.9,0,686,0,669,0C651.4,0,634,0,617,0C600,0,583,0,566,0C548.6,0,531,0,514,0C497.1,0,480,0,463,0C445.7,0,429,0,411,0C394.3,0,377,0,360,0C342.9,0,326,0,309,0C291.4,0,274,0,257,0C240,0,223,0,206,0C188.6,0,171,0,154,0C137.1,0,120,0,103,0C85.7,0,69,0,51,0C34.3,0,17,0,9,0L0,0Z"></path></svg>